<?xml version="1.0" encoding="utf-8"?>
<!-- Generator: Adobe Illustrator 25.4.1, SVG Export Plug-In . SVG Version: 6.00 Build 0)  -->
<svg version="1.1" xmlns="http://www.w3.org/2000/svg" xmlns:xlink="http://www.w3.org/1999/xlink" x="0px" y="0px"
	 viewBox="0 0 86.2 146.5" style="enable-background:new 0 0 86.2 146.5;" xml:space="preserve">
<style type="text/css">
	.st0{fill:#FFFFFF;}
	.st1{fill:#80CBC4;}
	.st2{fill:#00647E;}
	.st3{fill:#3F3350;}
	.st4{fill:none;stroke:#3F3350;stroke-width:0.7196;stroke-linecap:round;stroke-linejoin:round;stroke-miterlimit:10;}
	.st5{fill:none;stroke:#3F3350;stroke-width:0.7196;stroke-linecap:round;stroke-linejoin:round;}
	.st6{fill:#FF7043;}
	.st7{fill:#D84315;}
	.st8{fill:none;stroke:#3F3350;stroke-width:0.7187;stroke-linecap:round;stroke-linejoin:round;}
</style>
<g id="Layer_2">
	<g>
		<path class="st0" d="M0.6,42.9c0-23.3,19-42.2,42.5-42.2s42.5,18.9,42.5,42.2H0.6z"/>
		<path class="st1" d="M3.4,42.9C3.4,20.5,21.3,0.7,44,0.7s41.6,19.8,41.6,42.2H3.4z"/>
		<path class="st2" d="M85.5,43C85.5,42.9,85.5,42.9,85.5,43L85.5,43c0-0.9-0.2-1.6-0.4-2.2c-0.5-1.5-1.9-3-3.8-3.7
			c-2.7-1.1-7,1.4-7,1.4c0.2-3.9-3.5-7.5-8.7-8.3c-4.8-0.7-9.3,1.4-10.5,4.8c-0.7-4.6-5.8-8.1-12-8.1s-11.3,3.5-12,8.1
			c-1.2-3.4-5.7-5.5-10.5-4.8c-5.1,0.8-8.9,4.4-8.7,8.3c0,0-4.2-2.5-7-1.4c-1.2,0.5-2.3,1.3-3,2.2c-0.8,0.9-1.4,2.2-1.4,3.7h0
			c0,0.1,0,0.1,0,0.2c0,0,0,0.1,0,0.1h0c0,0.8,0.2,1.5,0.4,2.1c0.5,1.5,1.9,3,3.8,3.7c2.7,1.1,7-1.4,7-1.4c-0.2,3.9,3.5,7.5,8.7,8.3
			c4.8,0.7,9.3-1.4,10.5-4.8c0.7,4.6,5.8,8.1,12,8.1s11.3-3.5,12-8.1c1.2,3.4,5.7,5.5,10.5,4.8c5.1-0.8,8.9-4.4,8.7-8.3
			c0,0,4.2,2.5,7,1.4c1.2-0.5,2.3-1.3,3-2.2c0.8-0.9,1.4-2.2,1.4-3.7h0C85.5,43.1,85.5,43,85.5,43z"/>
		<g>
			<path class="st3" d="M30.6,51.1c-0.4-1.8-0.6-3.7-0.6-5.5c0-1.8,0.2-3.7,0.4-5.5c0-0.1,0.1-0.1,0.2-0.1c0.1,0,0.1,0.1,0.1,0.2
				c-0.4,3.6-0.4,7.3,0.6,10.8c0.1,0.2-0.1,0.4-0.2,0.4S30.7,51.3,30.6,51.1C30.6,51.1,30.6,51.1,30.6,51.1L30.6,51.1z"/>
		</g>
		<g>
			<path class="st3" d="M11.4,47.5c0-2,0.3-3.9,0.7-5.8c0.4-1.9,0.9-3.8,1.5-5.6c0-0.1,0.1-0.1,0.2-0.1c0.1,0,0.1,0.1,0.1,0.2
				c-0.5,1.9-1,3.7-1.3,5.6c-0.3,1.9-0.5,3.8-0.5,5.7c0,0.2-0.1,0.4-0.3,0.4C11.6,47.9,11.4,47.8,11.4,47.5
				C11.4,47.6,11.4,47.5,11.4,47.5z"/>
		</g>
		<g>
			<path class="st3" d="M54.7,50.9c1-3.5,1-7.2,0.6-10.8c0-0.1,0-0.1,0.1-0.2c0.1,0,0.1,0,0.2,0.1c0.3,1.8,0.4,3.6,0.4,5.5
				c0,1.8-0.2,3.7-0.6,5.5l0,0c0,0.2-0.2,0.3-0.4,0.3S54.6,51.1,54.7,50.9C54.7,50.9,54.7,50.9,54.7,50.9z"/>
		</g>
		<g>
			<path class="st3" d="M73.8,47.5c0-1.9-0.2-3.8-0.5-5.7c-0.3-1.9-0.8-3.8-1.3-5.6c0-0.1,0-0.2,0.1-0.2c0.1,0,0.2,0,0.2,0.1
				c0.6,1.8,1.1,3.7,1.5,5.6c0.4,1.9,0.7,3.8,0.7,5.8c0,0.2-0.2,0.4-0.4,0.4C74,47.9,73.8,47.7,73.8,47.5
				C73.8,47.5,73.8,47.5,73.8,47.5z"/>
		</g>
		<g>
			<path class="st3" d="M41.6,95.4L26.1,75.6c-0.1-0.1-0.1-0.2,0-0.3c0.1-0.1,0.2-0.1,0.3,0L42.2,95c0.1,0.2,0.1,0.4-0.1,0.5
				S41.8,95.6,41.6,95.4C41.6,95.4,41.6,95.4,41.6,95.4z"/>
		</g>
		<path class="st0" d="M35,2c-12.5,5.4-23.6,23.2-23,36.5c-0.2-3.9,3.6-7.2,8.5-8.3c4.8-1,9.3,1.4,10.5,4.8
			c-2-13.1,1.3-24.8,12.2-34.3C39.9,0.8,36.8,1,35,2z"/>
		<path class="st0" d="M51.2,2c12.5,5.4,23.6,23.2,23,36.5c0.2-3.9-3.6-7.2-8.5-8.3c-4.8-1-9.3,1.4-10.5,4.8
			c2-13.1-1.3-24.8-12.2-34.3C46.3,0.8,49.4,1,51.2,2z"/>
		<path class="st4" d="M19.2,8C26,3.4,34.2,0.7,43.1,0.7c23.5,0,42.4,18.9,42.4,42.2"/>
		<path class="st4" d="M0.6,42.9c0-7.7,2.1-14.9,5.7-21.1"/>
		<path class="st4" d="M43,59.1c6.2,0,11.3-3.5,12-8.1c1.2,3.4,5.7,5.5,10.5,4.8c5.1-0.8,8.9-4.4,8.7-8.3c0,0,4.2,2.5,7,1.4
			c1.2-0.5,2.3-1.3,3-2.2c0.9-0.9,1.5-2.3,1.5-3.9"/>
		<path class="st4" d="M0.6,42.9c0,0.9,0.2,1.7,0.5,2.4c0.5,1.5,1.9,3,3.8,3.7c2.7,1.1,7-1.4,7-1.4c-0.2,3.9,3.5,7.5,8.7,8.3
			c4.8,0.7,9.3-1.4,10.5-4.8"/>
		<path class="st4" d="M11.9,38.5c0,0-4.2-2.5-7-1.4c-1.2,0.5-2.3,1.3-3,2.2c-0.9,0.9-1.5,2.3-1.5,3.9"/>
		<g>
			<path class="st3" d="M74.1,38.5c0.1-2.1-1-4-2.6-5.4c-1.6-1.4-3.5-2.2-5.6-2.5c-2-0.3-4.2-0.2-6.1,0.6c-1.9,0.7-3.6,2.1-4.3,4
				l0,0l0,0c-0.1,0.2-0.3,0.3-0.5,0.2c-0.1-0.1-0.2-0.2-0.2-0.3c-0.4-2.5-2.2-4.6-4.4-5.8c-2.2-1.3-4.8-1.9-7.3-1.9
				c-2.5,0-5.1,0.6-7.3,1.9c-2.2,1.3-3.9,3.4-4.4,5.8c0,0.2-0.2,0.3-0.4,0.3c-0.1,0-0.2-0.1-0.3-0.2l0,0l0,0c-0.7-1.9-2.3-3.3-4.1-4
				c-1.9-0.8-4-1-6-0.7c-0.1,0-0.2-0.1-0.2-0.2c0-0.1,0.1-0.2,0.2-0.2c2.1-0.3,4.3-0.2,6.3,0.6c2,0.8,3.8,2.2,4.6,4.3l0,0L30.8,35
				c0.5-2.8,2.4-5,4.7-6.3c2.3-1.4,5-2,7.7-2c2.7,0,5.4,0.6,7.7,2c2.3,1.4,4.2,3.6,4.7,6.3l-0.7-0.1l0,0c0.8-2.1,2.7-3.7,4.7-4.4
				c2.1-0.8,4.3-0.9,6.5-0.5c2.1,0.4,4.2,1.3,5.9,2.7c1.6,1.4,2.8,3.5,2.7,5.8c0,0.1-0.1,0.2-0.3,0.2C74.2,38.7,74,38.6,74.1,38.5z"
				/>
		</g>
		<g>
			<path class="st3" d="M85.1,43.1c0-0.8-0.1-1.5-0.4-2.3l0,0l0,0c-0.5-1.7-1.9-3-3.6-3.7c-0.1,0-0.1-0.1-0.1-0.2
				c0-0.1,0.1-0.1,0.2-0.1c1.7,0.6,3.3,1.9,4,3.7l0,0c0.3,0.8,0.5,1.6,0.5,2.5c0,0.2-0.2,0.4-0.3,0.4C85.3,43.5,85.2,43.4,85.1,43.1
				C85.1,43.2,85.1,43.1,85.1,43.1z"/>
		</g>
		<g>
			<path class="st5" d="M31.1,35c-1.9-5.2-1.4-24.5,12-34.3"/>
		</g>
		<g>
			<path class="st3" d="M50.5,10c-2-3.5-4.7-6.6-7.9-9c-0.2-0.1-0.2-0.3-0.1-0.5c0.1-0.2,0.3-0.2,0.5-0.1l0,0
				c3.3,2.4,6.1,5.6,8.1,9.2c0.1,0.2,0,0.4-0.1,0.5C50.9,10.2,50.6,10.1,50.5,10z"/>
		</g>
		<g>
			<path class="st3" d="M54.7,34.9c0.6-1.7,0.7-3.6,0.8-5.5c0-1.9-0.1-3.8-0.3-5.6c-0.5-3.7-1.5-7.4-3-10.9c0-0.1,0-0.2,0.1-0.3
				c0.1,0,0.2,0,0.3,0.1c1.6,3.5,2.6,7.2,3.2,11c0.3,1.9,0.4,3.8,0.4,5.7c0,1.9-0.1,3.8-0.8,5.7c-0.1,0.2-0.3,0.3-0.5,0.2
				C54.8,35.3,54.7,35.1,54.7,34.9C54.7,34.9,54.7,34.9,54.7,34.9L54.7,34.9z"/>
		</g>
		<g>
			<path class="st3" d="M11.6,38.6c-0.3-0.9-0.3-1.8-0.2-2.7c0.1-0.9,0.2-1.7,0.4-2.6c0.3-1.7,0.8-3.3,1.4-4.9
				c1.1-3.2,2.5-6.3,4.2-9.3c1.7-3,3.6-5.8,5.8-8.4c2.2-2.6,4.7-4.9,7.6-6.8c0.1,0,0.2,0,0.2,0c0,0.1,0,0.2,0,0.2
				c-2.8,1.9-5.3,4.2-7.4,6.8c-2.2,2.6-4,5.4-5.7,8.3c-1.6,3-3,6-4.1,9.2c-0.5,1.6-1,3.2-1.3,4.9c-0.1,0.8-0.3,1.6-0.3,2.5
				c0,0.8,0,1.7,0.2,2.4l0,0c0.1,0.2,0,0.4-0.2,0.5C11.9,38.9,11.7,38.8,11.6,38.6C11.6,38.6,11.6,38.6,11.6,38.6z"/>
		</g>
		<g>
			<path class="st3" d="M73.4,29.9c-1.8-6.3-4.9-12.3-9.2-17.3c-4.2-5-9.7-9-15.8-11.2c-0.2-0.1-0.3-0.3-0.2-0.5s0.3-0.3,0.5-0.2
				l0,0c6.3,2.3,11.8,6.4,16,11.5c4.2,5.1,7.3,11.2,9.1,17.5c0,0.1,0,0.2-0.1,0.2C73.5,30.1,73.4,30,73.4,29.9z"/>
		</g>
		<g>
			<path class="st3" d="M41.6,95.3L30.9,35.1c0-0.1,0.1-0.2,0.2-0.2c0.1,0,0.2,0.1,0.2,0.2l11,60.1c0,0.2-0.1,0.4-0.3,0.4
				C41.8,95.6,41.6,95.5,41.6,95.3L41.6,95.3z"/>
		</g>
		<g>
			<path class="st3" d="M41.6,95.3L22.2,56c0-0.1,0-0.2,0.1-0.3c0.1,0,0.2,0,0.3,0.1L42.2,95c0.1,0.2,0,0.4-0.2,0.5
				C41.9,95.6,41.7,95.5,41.6,95.3L41.6,95.3z"/>
		</g>
		<g>
			<path class="st3" d="M41.6,95l19.3-39.4c0-0.1,0.2-0.1,0.3-0.1c0.1,0,0.1,0.2,0.1,0.3l-19,39.6c-0.1,0.2-0.3,0.3-0.5,0.2
				S41.5,95.2,41.6,95L41.6,95z"/>
		</g>
		<g>
			<path class="st3" d="M41.6,95.1L55,35c0-0.1,0.1-0.2,0.2-0.1c0.1,0,0.2,0.1,0.1,0.2L42.3,95.3c0,0.2-0.2,0.3-0.4,0.3
				S41.5,95.3,41.6,95.1L41.6,95.1z"/>
		</g>
		<g>
			<path class="st3" d="M41.6,95l43.9-52.1c0,0,0.1,0,0.1,0c0,0,0,0.1,0,0.1L42.2,95.4c-0.1,0.2-0.4,0.2-0.5,0S41.5,95.1,41.6,95
				L41.6,95z"/>
		</g>
		<g>
			<path class="st3" d="M26.1,75.6L1.8,47.3c-0.1-0.2-0.1-0.4,0-0.5s0.4-0.1,0.5,0l0,0l24.1,28.4c0.1,0.1,0.1,0.2,0,0.3
				C26.3,75.7,26.2,75.7,26.1,75.6z"/>
		</g>
	</g>
</g>
<g id="Layer_1">
	<path class="st3" d="M41.7,95.3L26.3,75.4c-0.1-0.1,0-0.2,0-0.3c0.1-0.1,0.2,0,0.3,0l15.7,19.6c0.1,0.2,0.1,0.4-0.1,0.5
		C42.1,95.5,41.9,95.4,41.7,95.3L41.7,95.3L41.7,95.3z"/>
	<circle class="st6" cx="41.5" cy="115.3" r="30.2"/>
	<path class="st7" d="M40.6,137.6c1.5,2.7,4.1,4.4,6.7,3.6c13.6-4.7,24.7-12,17-37.2l0,0C59.4,89.4,53.8,91.3,34.1,87
		c-2.4,4.8-3,9.8-2.9,25.1C31.3,117.5,37.7,132.1,40.6,137.6z"/>
	<path class="st8" d="M43.2,139.7c-3.2-8.4-8-19.9-5.5-50"/>
	<path class="st8" d="M42.2,139.1c-3.6-8.3-13-24.6-6.5-54"/>
	<path class="st8" d="M42,139.7c-4.5-7.8-17.1-26.5-7.8-52.7"/>
	<ellipse transform="matrix(0.9149 -0.4036 0.4036 0.9149 -40.8357 18.5129)" class="st7" cx="23.5" cy="106.1" rx="0.9" ry="0.7"/>
	<ellipse transform="matrix(0.9256 -0.3784 0.3784 0.9256 -45.2351 17.4715)" class="st7" cx="21.8" cy="123.8" rx="0.6" ry="1"/>
	<ellipse transform="matrix(0.9149 -0.4036 0.4036 0.9149 -43.3487 18.0189)" class="st7" cx="21.1" cy="111.8" rx="0.6" ry="0.5"/>
	<ellipse transform="matrix(0.8087 -0.5882 0.5882 0.8087 -71.5254 43.641)" class="st7" cx="31.3" cy="131.8" rx="0.7" ry="1.3"/>
	<path class="st7" d="M21,116.9c0,0.4,0.4,0.8,0.8,0.8c0,0,0,0,0,0c0.5,0,3-0.2,3-0.6s-2.4-0.9-2.9-0.9
		C21.5,116.1,21.1,116.4,21,116.9z"/>
	
		<ellipse transform="matrix(1.283102e-02 -0.9999 0.9999 1.283102e-02 -101.4434 151.318)" class="st7" cx="25.9" cy="127" rx="2.1" ry="0.6"/>
	
		<ellipse transform="matrix(0.1623 -0.9867 0.9867 0.1623 -111.7319 141.749)" class="st7" cx="27.6" cy="136.7" rx="1.9" ry="0.8"/>
	<ellipse transform="matrix(0.9087 -0.4174 0.4174 0.9087 -39.6489 17.1748)" class="st7" cx="19.4" cy="99.2" rx="0.6" ry="1.1"/>
	<ellipse transform="matrix(0.6372 -0.7707 0.7707 0.6372 -67.0799 53.6967)" class="st7" cx="23.5" cy="98.1" rx="1.1" ry="0.6"/>
	
		<ellipse transform="matrix(2.029363e-02 -0.9998 0.9998 2.029363e-02 -112.3607 150.9701)" class="st7" cx="20.9" cy="132.8" rx="0.8" ry="0.8"/>
	
		<ellipse transform="matrix(0.3012 -0.9536 0.9536 0.3012 -101.4666 94.9789)" class="st7" cx="14.1" cy="116.7" rx="1.1" ry="0.8"/>
	<path class="st7" d="M15.2,123c-0.3,0.1-0.3,0.7,0,1.3s1.9,3.4,2.1,3.2s-0.9-3.2-1.2-3.7S15.5,122.9,15.2,123z"/>
	<ellipse transform="matrix(0.7599 -0.65 0.65 0.7599 -67.6853 36.8406)" class="st7" cx="16" cy="110.1" rx="0.5" ry="2.5"/>
	
		<ellipse transform="matrix(2.031333e-02 -0.9998 0.9998 2.031333e-02 -87.4634 119.8673)" class="st7" cx="17.4" cy="104.6" rx="0.8" ry="0.8"/>
	<ellipse transform="matrix(0.9045 -0.4265 0.4265 0.9045 -49.5376 19.127)" class="st7" cx="17.9" cy="120.2" rx="0.4" ry="0.8"/>
	<ellipse transform="matrix(0.9045 -0.4265 0.4265 0.9045 -56.5872 27.7129)" class="st7" cx="33.6" cy="140.2" rx="0.4" ry="0.8"/>
	<path class="st8" d="M41.7,141.4c4.6-20.6,3.7-19.6,3.6-41.3"/>
	<path class="st8" d="M49.8,83.7c-2.8-6,2.7-7.8,2.8-7.8c0,0,3.8,2.9-0.3,8.1"/>
	<path class="st3" d="M49.8,83.7c-2.8-6,2.7-7.8,2.8-7.8c0,0,3.8,2.9-0.3,8.1"/>
	<path class="st0" d="M59.7,90.7c-3.4-5.7-7.9-7.7-12.5-9.3s-17.5-4-29.4-9.4c-1.2-0.5-1.8,2.4-1.8,3.5c-0.1,3.3,6.3,9,6.3,9
		s15.2,10.6,21.2,18.8c0.7,0.9,1.3,1.9,1.8,2.9l2.4-0.5"/>
	<path class="st6" d="M60.1,90.9c-3.1-5.7-8.4-6.7-13.1-8.3c-4.6-1.5-19.4-4.6-29.4-10.2c-1.1-0.6-1.1,0.8-1.5,2
		c-0.9,3,6.5,10.5,6.5,10.5s22,15.5,23.1,21.8C53.3,107.9,58.5,101.6,60.1,90.9z"/>
	<path class="st3" d="M25.8,82.2c-1.2,0.5-2.6,0.6-3.9,0.4c-1.3-0.2-2.5-0.9-3.4-1.9c-0.1-0.1-0.1-0.3,0-0.4c0.1-0.1,0.3-0.1,0.4,0
		l0,0c0.4,0.4,0.9,0.8,1.4,1.1c0.5,0.3,1.1,0.5,1.7,0.6c0.6,0.1,1.2,0.2,1.8,0.1c0.6,0,1.2-0.1,1.8-0.3l0,0c0.1,0,0.2,0,0.3,0.2
		C25.9,82.1,25.9,82.2,25.8,82.2L25.8,82.2z"/>
	<path class="st8" d="M27.1,82.4c-0.2,0.1-2.3,0.3-1.5-2"/>
	<path class="st8" d="M59.7,90.7c-1.4-2.3-3.2-4.3-5.4-5.9c-2.2-1.5-4.6-2.6-7.1-3.4c-4.6-1.6-17.5-4-29.4-9.4
		c-1.2-0.5-1.7,2.3-1.8,3.5c-0.2,2.6,6.3,9,6.3,9s15.2,10.6,21.2,18.8c0.7,0.9,1.3,1.9,1.8,2.9"/>
	<ellipse transform="matrix(0.6227 -0.7824 0.7824 0.6227 -51.169 42.1629)" class="st3" cx="18.1" cy="74.1" rx="0.7" ry="0.5"/>
	<ellipse transform="matrix(0.6227 -0.7824 0.7824 0.6227 -51.9504 43.1056)" class="st3" cx="18.7" cy="75.4" rx="0.7" ry="0.5"/>
	<ellipse transform="matrix(0.188 -0.9822 0.9822 0.188 -53.1265 93.9061)" class="st7" cx="30.2" cy="79.1" rx="0.2" ry="0.4"/>
	<ellipse transform="matrix(0.1395 -0.9902 0.9902 0.1395 -52.9473 93.7754)" class="st7" cx="27.5" cy="77.4" rx="0.2" ry="0.2"/>
	<ellipse transform="matrix(0.4426 -0.8967 0.8967 0.4426 -53.0006 82.3066)" class="st7" cx="39.7" cy="83.8" rx="0.3" ry="0.5"/>
	<ellipse transform="matrix(0.1683 -0.9857 0.9857 0.1683 -46.6365 118.6803)" class="st7" cx="47" cy="87" rx="0.2" ry="0.2"/>
	<ellipse transform="matrix(0.7936 -0.6084 0.6084 0.7936 -41.2729 47.6074)" class="st7" cx="49.5" cy="84.6" rx="0.4" ry="0.3"/>
	<ellipse transform="matrix(0.2982 -0.9545 0.9545 0.2982 -50.0586 94.7098)" class="st7" cx="39.4" cy="81.4" rx="0.2" ry="0.9"/>
	<ellipse transform="matrix(0.2384 -0.9712 0.9712 0.2384 -44.3276 114.3145)" class="st7" cx="50.7" cy="85.4" rx="0.2" ry="0.3"/>
	<ellipse transform="matrix(0.7266 -0.6871 0.6871 0.7266 -46.6441 53.6389)" class="st7" cx="44.1" cy="85.4" rx="0.4" ry="0.2"/>
	<ellipse transform="matrix(0.3457 -0.9383 0.9383 0.3457 -49.3341 102.1068)" class="st7" cx="48.6" cy="86.4" rx="0.2" ry="0.4"/>
	<ellipse transform="matrix(0.7266 -0.6871 0.6871 0.7266 -45.6626 54.6719)" class="st7" cx="45.9" cy="84.7" rx="0.3" ry="0.2"/>
	<path class="st7" d="M51.1,87.2c0.1,0.1,0.1,0.2,0,0.4s-0.8,0.9-1,0.8s0.4-0.9,0.5-1.1C50.8,87.2,51,87.1,51.1,87.2z"/>
	<ellipse transform="matrix(0.4574 -0.8893 0.8893 0.4574 -51.8194 82.5988)" class="st7" cx="41.8" cy="83.8" rx="0.2" ry="0.4"/>
	<ellipse transform="matrix(0.8937 -0.4486 0.4486 0.8937 -32.4866 28.1958)" class="st7" cx="43.3" cy="82.7" rx="0.3" ry="0.3"/>
	
		<ellipse transform="matrix(9.660839e-02 -0.9953 0.9953 9.660839e-02 -40.7764 122.3461)" class="st7" cx="47" cy="83.6" rx="0.3" ry="0.5"/>
	<ellipse transform="matrix(0.4493 -0.8934 0.8934 0.4493 -53.364 75.4072)" class="st7" cx="34.5" cy="81" rx="0.4" ry="0.2"/>
	<ellipse transform="matrix(0.4493 -0.8934 0.8934 0.4493 -52.6551 72.5184)" class="st7" cx="32.5" cy="79" rx="0.3" ry="0.2"/>
	<ellipse transform="matrix(0.1133 -0.9936 0.9936 0.1133 -47.7705 106.1017)" class="st7" cx="35.6" cy="79.8" rx="0.2" ry="0.4"/>
	<ellipse transform="matrix(0.6882 -0.7255 0.7255 0.6882 -48.2131 52.6574)" class="st7" cx="37.2" cy="82.4" rx="0.3" ry="0.3"/>
	<path class="st7" d="M53,88.6c0.5-0.8,0.5,1.6-3.1,0c-5.2-2.3-8-4.8-24.1-10.1l-0.2,0.6C41.6,85.8,49,95.1,53,88.6z"/>
	<path class="st3" d="M25.9,78.5c2.4,0.7,4.8,1.4,7.1,2.2c2.3,0.8,4.6,1.8,6.9,2.8c2.3,1,4.4,2.2,6.6,3.4c1.1,0.6,2.2,1,3.4,1.4
		c0.6,0.2,1.2,0.3,1.7,0.4c0.5,0.2,1.1,0,1.4-0.4c0.1-0.1,0.2-0.1,0.3,0c0.1,0.1,0.1,0.2,0.1,0.3c-0.2,0.3-0.5,0.6-0.8,0.7
		c-0.3,0.1-0.7,0.1-1,0.1c-0.6-0.1-1.3-0.2-1.9-0.4c-1.2-0.4-2.4-0.9-3.5-1.5c-2.2-1.2-4.3-2.4-6.6-3.4c-4.5-2.1-9.1-3.9-13.8-5.3
		c-0.1,0-0.1-0.1-0.1-0.2c0,0,0,0,0,0C25.7,78.5,25.8,78.5,25.9,78.5z"/>
	<ellipse transform="matrix(0.2224 -0.975 0.975 0.2224 -54.9341 111.3833)" class="st0" cx="42.4" cy="90.1" rx="2.5" ry="2.6"/>
	<path class="st3" d="M41.2,92.5c-1-0.4-1.7-1.4-1.7-2.5c0-1.2,0.8-2.2,1.9-2.6c1.1-0.4,2.3,0,3.1,0.8c0.8,0.9,0.9,2.1,0.3,3.1
		c-0.1,0.1-0.2,0.1-0.3,0.1c-0.1,0-0.1-0.2-0.1-0.2c0.3-0.9,0.2-1.8-0.5-2.5c-0.6-0.6-1.5-0.9-2.4-0.6c-0.9,0.3-1.5,1-1.6,1.9
		c-0.1,0.9,0.4,1.9,1.2,2.4C41.3,92.4,41.3,92.4,41.2,92.5C41.3,92.5,41.3,92.5,41.2,92.5C41.3,92.5,41.2,92.5,41.2,92.5z"/>
	<path class="st3" d="M18.3,77c0.2,0,0.4,0,0.6-0.1c0.2-0.1,0.4-0.2,0.6-0.3c0.3-0.2,0.5-0.6,0.4-1l0,0c0-0.2,0.1-0.4,0.3-0.4
		c0.2,0,0.4,0.1,0.4,0.3c0,0,0,0,0,0.1c0,0.3-0.1,0.6-0.2,0.9c-0.1,0.3-0.4,0.5-0.6,0.6c-0.2,0.1-0.5,0.2-0.8,0.2
		c-0.3,0.1-0.6,0-0.9-0.1c-0.1,0-0.1-0.1-0.1-0.1c0,0,0.1-0.1,0.1-0.1L18.3,77z"/>
	<path class="st0" d="M55.3,86.4c7.7-3.8,3.4-10,3.3-10.1c0,0-6.3-0.3-6.2,8.3"/>
	<path class="st6" d="M54.5,87.2c7.1-4,3.9-9.8,3.9-9.9c0,0-5.7,0.4-6,8.6"/>
	<path class="st7" d="M53.6,85.5c-0.2-0.1,4.8-2.5,4.7-7.8l0.1-1.4c2.4,4.4,0.8,8-3.3,10.4L53.6,85.5z"/>
	<path class="st8" d="M55.1,86.7c7.8-4,3.5-10.3,3.5-10.4c0,0-6.3-0.2-6.4,8.6"/>
	<path class="st3" d="M53.4,85.2c0.7-0.5,1.4-1,2-1.6c0.6-0.6,1.1-1.3,1.6-2c0.5-0.7,0.8-1.5,1-2.4c0.2-0.8,0.3-1.7,0.3-2.6l0,0
		c0-0.1,0.1-0.1,0.1-0.1c0.1,0,0.1,0.1,0.1,0.1c0.1,0.9,0,1.8-0.2,2.7c-0.2,0.9-0.5,1.7-1,2.5c-0.4,0.8-1,1.5-1.6,2.2
		c-0.6,0.7-1.3,1.3-2,1.8c-0.2,0.1-0.4,0.1-0.5-0.1C53.2,85.6,53.2,85.4,53.4,85.2L53.4,85.2L53.4,85.2L53.4,85.2z"/>
	<path class="st3" d="M52.8,85c1.1-1.6,1.7-3.4,1.8-5.3l0,0c0-0.1,0.1-0.2,0.2-0.2c0.1,0,0.2,0.1,0.2,0.2c0,1-0.2,2-0.4,3
		c-0.2,1-0.7,1.9-1.2,2.8c-0.1,0.2-0.3,0.2-0.5,0.1C52.7,85.4,52.7,85.2,52.8,85L52.8,85L52.8,85z"/>
	<path class="st3" d="M39,134.5l3,5.2c13.6-4.7,32.5-10.6,24.8-35.8l0,0c-4.8-14.5-1.5-10.6-21.2-15c-0.1,4.4-1.2,15-3.5,30.2
		C40.1,131.9,39,134.5,39,134.5z"/>
	<path class="st6" d="M45.5,88.9c0-3.2,2.6-4.5,5.2-4c14.1,2.6,24.4,17.5,20,36l0,0c-3.7,15.9-10.1,16.5-29.6,24.3
		C46,124.1,45.7,110.2,45.5,88.9z"/>
	<path class="st8" d="M59.8,88.6c-2.7-1.9-5.8-3.1-9.1-3.7c-2.6-0.5-5.3,0.8-5.2,4l-0.6,12.8"/>
	<ellipse transform="matrix(0.2752 -0.9614 0.9614 0.2752 -60.305 127.4239)" class="st7" cx="54.4" cy="103.7" rx="0.7" ry="0.9"/>
	
		<ellipse transform="matrix(0.4295 -0.9031 0.9031 0.4295 -79.3929 114.6647)" class="st7" cx="51.1" cy="120.2" rx="1.4" ry="0.5"/>
	<ellipse transform="matrix(0.2488 -0.9686 0.9686 0.2488 -67.838 142.4587)" class="st7" cx="57.9" cy="115" rx="1" ry="0.6"/>
	
		<ellipse transform="matrix(0.2752 -0.9614 0.9614 0.2752 -60.6506 134.2303)" class="st7" cx="58.7" cy="107.3" rx="0.5" ry="0.6"/>
	
		<ellipse transform="matrix(0.4725 -0.8813 0.8813 0.4725 -90.0093 112.9616)" class="st7" cx="49.4" cy="131.7" rx="1.3" ry="0.7"/>
	<path class="st7" d="M52.5,109.4c0.4,0,0.8,0.3,0.8,0.7c0,0,0,0,0,0c0.1,0.5,0.2,3-0.2,3s-1.1-2.3-1.2-2.8
		C51.8,110,52.1,109.5,52.5,109.4z"/>
	
		<ellipse transform="matrix(0.5321 -0.8467 0.8467 0.5321 -77.7672 104.7837)" class="st7" cx="55.9" cy="122.7" rx="2.1" ry="0.6"/>
	<ellipse transform="matrix(0.9725 -0.2327 0.2327 0.9725 -31.6724 14.8856)" class="st7" cx="47.2" cy="141.7" rx="1" ry="0.6"/>
	<ellipse transform="matrix(0.9862 -0.1657 0.1657 0.9862 -22.0846 10.6901)" class="st7" cx="53" cy="137.7" rx="0.5" ry="0.6"/>
	<ellipse transform="matrix(0.9554 -0.2952 0.2952 0.9554 -36.8417 21.8995)" class="st7" cx="54.1" cy="132.9" rx="0.8" ry="1.9"/>
	<ellipse transform="matrix(0.2897 -0.9571 0.9571 0.2897 -51.2936 123.0771)" class="st7" cx="57.3" cy="96.1" rx="1.1" ry="0.6"/>
	<ellipse transform="matrix(0.6767 -0.7363 0.7363 0.6767 -55.5353 76.9333)" class="st7" cx="59.8" cy="101.7" rx="0.6" ry="1.1"/>
	<ellipse transform="matrix(0.9877 -0.1563 0.1563 0.9877 -19.5054 11.0409)" class="st7" cx="60.5" cy="129.6" rx="0.8" ry="0.8"/>
	<ellipse transform="matrix(0.9036 -0.4283 0.4283 0.9036 -41.2513 39.2667)" class="st7" cx="66.6" cy="111.3" rx="0.8" ry="1.1"/>
	<path class="st7" d="M64.7,119.1c0.3,0.1,0.4,0.7,0.2,1.3s-1.4,3.6-1.7,3.5s0.5-3.3,0.6-3.9C64,119.4,64.4,119,64.7,119.1z"/>
	
		<ellipse transform="matrix(0.5404 -0.8414 0.8414 0.5404 -57.8342 102.4393)" class="st7" cx="64.9" cy="104.2" rx="2.5" ry="0.5"/>
	<ellipse transform="matrix(0.9877 -0.1563 0.1563 0.9877 -14.658 10.7304)" class="st7" cx="60.9" cy="98.6" rx="0.8" ry="0.8"/>
	
		<ellipse transform="matrix(0.2993 -0.9542 0.9542 0.2993 -67.2162 140.1322)" class="st7" cx="61.8" cy="115.8" rx="0.8" ry="0.4"/>
	<path class="st8" d="M64.8,93.1c5,5.9,7.5,13.6,6.8,21.3c0,0.1,0,0.1,0,0.2c0.2,11.1-8.1,32-30.9,30.9h0c-17.1,0-31-13.9-31-31
		c0-11.3,6.1-21.6,16-27.1"/>
</g>
</svg>
