<svg xmlns="http://www.w3.org/2000/svg" viewBox="0 0 180 34" preserveAspectRatio="none"><path d="M92.2475,19.17189l-1.798.021c-.169.003-.339.005-.509.008.22,1.149.463,2.12,1.098,2.465,1.436.779,1.182-.808,1.209-2.494m37.675-2.731,1.25-.096q1.16548-.0945,2.332-.194a3.24277,3.24277,0,0,0-1.717-2.219c-1.89-.702-1.973.289-1.907,1.688l.013.251c.01.186.021.376.029.57m-62.183,15.223a20.169,20.169,0,0,1-5.783-11.287c-6.577.414-13.149.902-19.721,1.413l-5.346.42q-1.338.105-2.674.212c-9.916.787-20.473-1.605-30.764-4.029-4.744-1.117-3.604-2.528-2.371-3.264l.123-.071a4.77588,4.77588,0,0,1,.893-.395c1.246-.373,2.481-.816,3.713-1.282l1.233-.472c4.725-1.818,9.472-3.71,14.814-2.846,12.392,2.002,24.016-.644,35.34-2.371,13.218-2.016,26.368-1.9,39.684-2.199,18.142-.407,36.539-.396,54.103-3.053,6.562-.994,11.341-4.968,18.379.024,8.95,6.349,12.238,13.519,9.586,22.917-.67,2.375-1.38,2.687-8.062,2.719a23.99379,23.99379,0,0,0-7.963-3.259,8.31681,8.31681,0,0,1-4.702.363c-7.533-1.771-14.716.531-21.692,2.03-8.144,1.749-16.189,1.629-24.347,1.873q-1.5885.048-3.179.087l-3.184.082c-9.026.236-18.073.569-26.832,2.434-4.042.861-7.072,4.338-11.248-.046" style="fill:#fff8e1;fill-rule:evenodd"/></svg>